<svg xmlns="http://www.w3.org/2000/svg" id="uuid-6f92013c-0253-4f16-991e-e4781aeeba99" viewBox="0 0 346.13 68.05">
  <defs>
    <style>
      .uuid-8da33e3c-7f6c-445a-a49a-45422ba1cc61{fill:#003acc}
    </style>
  </defs>
  <path d="M76.29 30.21c-2.04-.85-4.51-1.28-7.42-1.28a122 122 0 0 0-6.88.2c-1.13.07-2.1.14-2.93.21v7.8c1.16-.07 2.45-.14 3.85-.21s2.74-.12 4-.15c1.27-.03 2.22-.05 2.87-.05 1.37 0 2.35.32 2.95.95.58.62.88 1.55.9 2.8h-4.46c-2.57 0-4.84.31-6.83.92-1.99.62-3.54 1.58-4.67 2.9s-1.69 3.04-1.69 5.16c0 1.88.44 3.5 1.31 4.85s2.08 2.39 3.62 3.11 3.3 1.08 5.29 1.08 3.65-.36 5.01-1.08a7.8 7.8 0 0 0 3.18-3.11c.32-.56.58-1.17.8-1.82v5.29h7.39v-17.2c0-2.64-.54-4.81-1.62-6.52s-2.64-2.99-4.67-3.85m-3.36 20.07c-.41.72-.93 1.22-1.57 1.51-.63.29-1.36.44-2.18.44-1.27 0-2.24-.32-2.93-.95s-1.03-1.46-1.03-2.49.34-1.91 1.03-2.54c.68-.63 1.66-.95 2.93-.95h4.47v2c-.07 1.27-.31 2.26-.72 2.98m54.64-20.3c-1.46-.98-3.24-1.46-5.36-1.46h-.41c-2.09 0-3.85.49-5.29 1.46-1.44.98-2.52 2.43-3.26 4.36 0 .02-.02.05-.03.07 0-.02-.02-.05-.03-.07-.74-1.93-1.81-3.39-3.23-4.36-1.42-.98-3.19-1.46-5.31-1.46h-.41c-2.09 0-3.85.49-5.29 1.46-1.44.98-2.52 2.43-3.26 4.36-.29.76-.52 1.59-.69 2.5v-7.41h-7.39v28.34h9.34V41.5c0-1.37.37-2.49 1.1-3.36.74-.87 1.75-1.31 3.05-1.31s2.3.44 3 1.31 1.05 1.96 1.05 3.26v16.38h9.34V41.51c0-1.37.37-2.49 1.1-3.36.74-.87 1.75-1.31 3.05-1.31s2.3.44 3 1.31 1.05 1.96 1.05 3.26v16.38h9.34V41.67c0-2.94-.39-5.38-1.16-7.32-.77-1.93-1.88-3.39-3.34-4.36Zm37.23 2.67a11.7 11.7 0 0 0-4.06-2.98c-1.57-.7-3.34-1.05-5.29-1.05-2.26 0-4.26.51-6.01 1.51-1.75 1.01-3.12 2.49-4.13 4.44-.33.64-.61 1.34-.85 2.07v-7.21h-7.39v38.61h9.34V54.52a9.2 9.2 0 0 0 3.29 2.86c1.68.87 3.61 1.31 5.8 1.31 2.05 0 3.88-.36 5.47-1.08s2.93-1.74 4.03-3.05q1.65-1.98 2.46-4.62c.55-1.76.82-3.69.82-5.78v-1.23c0-2.09-.3-4-.9-5.75s-1.46-3.26-2.59-4.54Zm-6.65 14.76c-.53 1.13-1.27 2.01-2.21 2.64s-2.03.95-3.26.95c-1.03 0-2.04-.25-3.03-.74-.99-.5-1.81-1.21-2.46-2.16-.65-.94-.98-2.08-.98-3.41v-1.75c0-1.4.31-2.6.92-3.59.62-.99 1.41-1.75 2.39-2.26s2.03-.77 3.16-.77c1.27 0 2.36.3 3.29.9.92.6 1.65 1.44 2.18 2.52s.8 2.35.8 3.82-.27 2.72-.8 3.85m32.92-1.38c0 1.33-.39 2.4-1.18 3.18-.79.79-1.81 1.18-3.08 1.18s-2.28-.39-3.03-1.18-1.13-1.81-1.13-3.08V29.45h-9.34v16.43c0 4.35.88 7.57 2.64 9.68 1.76 2.1 4.25 3.16 7.47 3.16h.41c2.12 0 3.9-.46 5.34-1.39 1.44-.92 2.52-2.34 3.26-4.24.24-.61.43-1.28.59-1.99v6.69h7.39V29.45h-9.34zm37.84-3.11c-1.97-1.63-4.77-2.63-8.39-3l-1.95-.21c-1.4-.17-2.42-.43-3.05-.77s-.95-.87-.95-1.59.33-1.21 1-1.59 1.53-.56 2.59-.56q2.205 0 3.39.9c.79.6 1.25 1.33 1.39 2.18h8.21c-.14-3.11-1.37-5.5-3.7-7.16s-5.39-2.49-9.19-2.49c-2.33 0-4.4.34-6.21 1.03s-3.23 1.7-4.26 3.05-1.54 3.07-1.54 5.16c0 2.43.86 4.45 2.57 6.06s4.38 2.6 8.01 2.98l1.95.21c1.81.17 3.06.49 3.75.95.68.46 1.03 1.05 1.03 1.77 0 .82-.44 1.41-1.31 1.77s-1.91.54-3.11.54c-1.68 0-2.98-.31-3.9-.92-.92-.62-1.46-1.35-1.59-2.21h-8.21c.17 3.08 1.44 5.47 3.8 7.16s5.6 2.54 9.7 2.54c2.67 0 4.97-.38 6.9-1.13s3.42-1.83 4.47-3.23c1.04-1.4 1.57-3.08 1.57-5.03 0-2.64-.98-4.77-2.95-6.39Z" class="uuid-8da33e3c-7f6c-445a-a49a-45422ba1cc61"/>
  <path d="M265.36 30.62h-8.83v12.94h-8.93l-.77-1.13 11.35-18.48-7.55-4.77-13.76 22.28v9.7h19.66v6.62h8.83v-6.62h4.06v-7.6h-4.06zm80.77 12.94h-4.06V30.62h-8.83v12.94h-8.93l-.77-1.13 11.35-18.48-7.55-4.77-13.76 22.28v9.7h19.66v6.62h8.83v-6.62h4.06z"/>
  <path d="M73.37 16.52H57.8c-5.54-2.72-10.42-3.77-14.6-3.87h-.02c-5.09-.1-9.14 1.22-12.06 2.71-1.36.7-2.47 1.43-3.33 2.08-.15.12-.3.22-.45.34l-.18.15c-.9.73-1.42 1.28-1.52 1.39l-.02.02a20.24 20.24 0 0 0-5.83 14.27c.03 10.88 8.79 19.88 19.67 20.19 4.26.12 8.25-1.08 11.56-3.22.03 1.8.46 3.36 1.31 4.66.37.58.81 1.1 1.3 1.56a29.16 29.16 0 0 1-18.76 6.84C18.8 63.67 5.61 50.56 5.55 34.48A29.1 29.1 0 0 1 9.7 19.33H.88c-.95 0-1.22-1.29-.36-1.68L39.66.32c.97-.43 2.07-.42 3.03.03l31.04 14.52c.84.4.56 1.66-.37 1.66Z" class="uuid-8da33e3c-7f6c-445a-a49a-45422ba1cc61"/>
  <path d="M306.72 28.26c-1.23-2.77-3.11-4.98-5.62-6.62-.65-.42-1.34-.79-2.08-1.11-.78-.33-1.62-.61-2.51-.82-.8-.19-1.63-.33-2.5-.42-.8-.08-1.62-.12-2.48-.12h-.03c-.87 0-1.71.04-2.51.13-.87.09-1.71.23-2.51.43-.88.21-1.72.49-2.5.82-.73.31-1.41.67-2.05 1.09-2.53 1.64-4.42 3.85-5.65 6.62s-1.85 5.87-1.85 9.29v2.98c0 2.43.32 4.75.98 6.96q.975 3.315 3.03 5.85c1.37 1.69 3.13 3.03 5.29 4.01.09.04.17.07.26.1V38.99c0-3.87.63-6.67 1.9-8.39.19-.26.39-.49.61-.71.69-.7 1.53-1.21 2.51-1.52.75-.24 1.59-.36 2.51-.36h.03c.91 0 1.73.12 2.48.35a6.05 6.05 0 0 1 3.11 2.24c1.2 1.64 1.83 4.29 1.89 7.92v18.95c.1-.04.21-.08.31-.13 2.16-.98 3.91-2.31 5.26-4.01q2.025-2.535 3-5.85c.65-2.21.98-4.52.98-6.96v-2.98c0-3.42-.62-6.52-1.85-9.29Z"/>
  <path d="M292.87 48.11h3.64v9.34h-3.64zm-6.39-.06h3.64v9.4h-3.64z"/>
</svg>